#Comment line ignore any data following # character 
#Hierarchical Translation and Rotation (.htr) file 
[Header]	
#Header keywords are followed by a single value 
FileType HTR		#Single word string
DataType HTRS		#Translation followed by rotation and scale data
FileVersion 1		#integer
NumSegments 84		#integer
NumFrames 2		#integer
DataFrameRate 30		#integer, data frame rate in this file
EulerRotationOrder ZYX
CalibrationUnits mm
RotationUnits Degrees
GlobalAxisofGravity Y
BoneLengthAxis Y
ScaleFactor 1.00
[SegmentNames&Hierarchy]
#CHILD	PARENT
MASTER GLOBAL
root MASTER
chest root
L_mid_tent01 root
R_mid_tent01 root
spine01 root
Bip01_Neck chest
L_humerus chest
R_humerus chest
weapon_bone chest
Bip01_Head Bip01_Neck
eye_left_bone Bip01_Head
eye_right_bone Bip01_Head
L_forearm L_humerus
L_front_hand L_forearm
L_weapon_bone L_forearm
L_front_hand01_01 L_front_hand
L_front_hand02_01 L_front_hand
L_front_hand03_01 L_front_hand
L_front_hand01_02 L_front_hand01_01
L_front_hand02_02 L_front_hand02_01
L_front_hand03_02 L_front_hand03_01
R_forearm R_humerus
R_front_hand R_forearm
R_weapon_bone R_forearm
R_front_hand01_01 R_front_hand
R_front_hand02_01 R_front_hand
R_front_hand03_01 R_front_hand
R_front_hand01_02 R_front_hand01_01
R_front_hand02_02 R_front_hand02_01
R_front_hand03_02 R_front_hand03_01
null_rope01_connect L_mid_tent01
Rope1_Seg01 null_rope01_connect
Rope1_Seg02 Rope1_Seg01
Rope1_Seg03 Rope1_Seg02
Rope1_Seg04 Rope1_Seg03
Rope1_Seg05 Rope1_Seg04
Rope1_Seg06 Rope1_Seg05
Rope1_Seg07 Rope1_Seg06
Rope1_Seg09 Rope1_Seg07
L_mid_hand01 Rope1_Seg09
L_mid_hand02 Rope1_Seg09
L_mid_hand03 Rope1_Seg09
null_rope02_connect R_mid_tent01
Rope2_Seg01 null_rope02_connect
Rope2_Seg02 Rope2_Seg01
Rope2_Seg03 Rope2_Seg02
Rope2_Seg04 Rope2_Seg03
Rope2_Seg05 Rope2_Seg04
Rope2_Seg06 Rope2_Seg05
Rope2_Seg07 Rope2_Seg06
Rope2_Seg09 Rope2_Seg07
R_mid_hand01 Rope2_Seg09
R_mid_hand02 Rope2_Seg09
R_mid_hand03 Rope2_Seg09
spine02 spine01
spine03 spine02
pelvis spine03
null_rope03_connect pelvis
null_rope04_connect pelvis
Rope3_Seg01 null_rope03_connect
Rope3_Seg02 Rope3_Seg01
Rope3_Seg03 Rope3_Seg02
Rope3_Seg04 Rope3_Seg03
Rope3_Seg05 Rope3_Seg04
Rope3_Seg06 Rope3_Seg05
Rope3_Seg07 Rope3_Seg06
Rope3_Seg08 Rope3_Seg07
Rope3_Seg09 Rope3_Seg08
R_rear_hand01 Rope3_Seg09
R_rear_hand02 Rope3_Seg09
R_rear_hand03 Rope3_Seg09
Rope4_Seg01 null_rope04_connect
Rope4_Seg02 Rope4_Seg01
Rope4_Seg03 Rope4_Seg02
Rope4_Seg04 Rope4_Seg03
Rope4_Seg05 Rope4_Seg04
Rope4_Seg06 Rope4_Seg05
Rope4_Seg07 Rope4_Seg06
Rope4_Seg08 Rope4_Seg07
Rope4_Seg09 Rope4_Seg08
L_rear_hand01 Rope4_Seg09
L_rear_hand02 Rope4_Seg09
L_rear_hand03 Rope4_Seg09
[BasePosition]
#SegmentName Tx, Ty, Tz, Rx, Ry, Rz, BoneLength
MASTER 0.000000 0.000000 0.000000 -90.000000 0.000000 0.000000 10.000000 
root 0.000000 0.000000 0.000000 0.000000 0.000000 0.000000 10.000000 
chest 0.000000 0.000000 0.000000 0.000000 0.000000 0.000000 10.000000 
L_mid_tent01 0.000000 0.000000 0.000000 0.000000 0.000000 0.000000 10.000000 
R_mid_tent01 0.000000 0.000000 0.000000 0.000000 0.000000 0.000000 10.000000 
spine01 0.000000 0.000000 0.000000 0.000000 0.000000 0.000000 10.000000 
Bip01_Neck 0.000000 0.000000 0.000000 0.000000 0.000000 0.000000 10.000000 
L_humerus 0.000000 0.000000 0.000000 0.000000 0.000000 0.000000 10.000000 
R_humerus 0.000000 0.000000 0.000000 0.000000 0.000000 0.000000 10.000000 
weapon_bone 0.000000 0.000000 0.000000 0.000000 0.000000 0.000000 10.000000 
Bip01_Head 0.000000 0.000000 0.000000 0.000000 0.000000 0.000000 10.000000 
eye_left_bone 0.000000 0.000000 0.000000 0.000000 0.000000 0.000000 10.000000 
eye_right_bone 0.000000 0.000000 0.000000 0.000000 0.000000 0.000000 10.000000 
L_forearm 0.000000 0.000000 0.000000 0.000000 0.000000 0.000000 10.000000 
L_front_hand 0.000000 0.000000 0.000000 0.000000 0.000000 0.000000 10.000000 
L_weapon_bone 0.000000 0.000000 0.000000 0.000000 0.000000 0.000000 10.000000 
L_front_hand01_01 0.000000 0.000000 0.000000 0.000000 0.000000 0.000000 10.000000 
L_front_hand02_01 0.000000 0.000000 0.000000 0.000000 0.000000 0.000000 10.000000 
L_front_hand03_01 0.000000 0.000000 0.000000 0.000000 0.000000 0.000000 10.000000 
L_front_hand01_02 0.000000 0.000000 0.000000 0.000000 0.000000 0.000000 10.000000 
L_front_hand02_02 0.000000 0.000000 0.000000 0.000000 0.000000 0.000000 10.000000 
L_front_hand03_02 0.000000 0.000000 0.000000 0.000000 0.000000 0.000000 10.000000 
R_forearm 0.000000 0.000000 0.000000 0.000000 0.000000 0.000000 10.000000 
R_front_hand 0.000000 0.000000 0.000000 0.000000 0.000000 0.000000 10.000000 
R_weapon_bone 0.000000 0.000000 0.000000 0.000000 0.000000 0.000000 10.000000 
R_front_hand01_01 0.000000 0.000000 0.000000 0.000000 0.000000 0.000000 10.000000 
R_front_hand02_01 0.000000 0.000000 0.000000 0.000000 0.000000 0.000000 10.000000 
R_front_hand03_01 0.000000 0.000000 0.000000 0.000000 0.000000 0.000000 10.000000 
R_front_hand01_02 0.000000 0.000000 0.000000 0.000000 0.000000 0.000000 10.000000 
R_front_hand02_02 0.000000 0.000000 0.000000 0.000000 0.000000 0.000000 10.000000 
R_front_hand03_02 0.000000 0.000000 0.000000 0.000000 0.000000 0.000000 10.000000 
null_rope01_connect 0.000000 0.000000 0.000000 0.000000 0.000000 0.000000 10.000000 
Rope1_Seg01 0.000000 0.000000 0.000000 0.000000 0.000000 0.000000 10.000000 
Rope1_Seg02 0.000000 0.000000 0.000000 0.000000 0.000000 0.000000 10.000000 
Rope1_Seg03 0.000000 0.000000 0.000000 0.000000 0.000000 0.000000 10.000000 
Rope1_Seg04 0.000000 0.000000 0.000000 0.000000 0.000000 0.000000 10.000000 
Rope1_Seg05 0.000000 0.000000 0.000000 0.000000 0.000000 0.000000 10.000000 
Rope1_Seg06 0.000000 0.000000 0.000000 0.000000 0.000000 0.000000 10.000000 
Rope1_Seg07 0.000000 0.000000 0.000000 0.000000 0.000000 0.000000 10.000000 
Rope1_Seg09 0.000000 0.000000 0.000000 0.000000 0.000000 0.000000 10.000000 
L_mid_hand01 0.000000 0.000000 0.000000 0.000000 0.000000 0.000000 10.000000 
L_mid_hand02 0.000000 0.000000 0.000000 0.000000 0.000000 0.000000 10.000000 
L_mid_hand03 0.000000 0.000000 0.000000 0.000000 0.000000 0.000000 10.000000 
null_rope02_connect 0.000000 0.000000 0.000000 0.000000 0.000000 0.000000 10.000000 
Rope2_Seg01 0.000000 0.000000 0.000000 0.000000 0.000000 0.000000 10.000000 
Rope2_Seg02 0.000000 0.000000 0.000000 0.000000 0.000000 0.000000 10.000000 
Rope2_Seg03 0.000000 0.000000 0.000000 0.000000 0.000000 0.000000 10.000000 
Rope2_Seg04 0.000000 0.000000 0.000000 0.000000 0.000000 0.000000 10.000000 
Rope2_Seg05 0.000000 0.000000 0.000000 0.000000 0.000000 0.000000 10.000000 
Rope2_Seg06 0.000000 0.000000 0.000000 0.000000 0.000000 0.000000 10.000000 
Rope2_Seg07 0.000000 0.000000 0.000000 0.000000 0.000000 0.000000 10.000000 
Rope2_Seg09 0.000000 0.000000 0.000000 0.000000 0.000000 0.000000 10.000000 
R_mid_hand01 0.000000 0.000000 0.000000 0.000000 0.000000 0.000000 10.000000 
R_mid_hand02 0.000000 0.000000 0.000000 0.000000 0.000000 0.000000 10.000000 
R_mid_hand03 0.000000 0.000000 0.000000 0.000000 0.000000 0.000000 10.000000 
spine02 0.000000 0.000000 0.000000 0.000000 0.000000 0.000000 10.000000 
spine03 0.000000 0.000000 0.000000 0.000000 0.000000 0.000000 10.000000 
pelvis 0.000000 0.000000 0.000000 0.000000 0.000000 0.000000 10.000000 
null_rope03_connect 0.000000 0.000000 0.000000 0.000000 0.000000 0.000000 10.000000 
null_rope04_connect 0.000000 0.000000 0.000000 0.000000 0.000000 0.000000 10.000000 
Rope3_Seg01 0.000000 0.000000 0.000000 0.000000 0.000000 0.000000 10.000000 
Rope3_Seg02 0.000000 0.000000 0.000000 0.000000 0.000000 0.000000 10.000000 
Rope3_Seg03 0.000000 0.000000 0.000000 0.000000 0.000000 0.000000 10.000000 
Rope3_Seg04 0.000000 0.000000 0.000000 0.000000 0.000000 0.000000 10.000000 
Rope3_Seg05 0.000000 0.000000 0.000000 0.000000 0.000000 0.000000 10.000000 
Rope3_Seg06 0.000000 0.000000 0.000000 0.000000 0.000000 0.000000 10.000000 
Rope3_Seg07 0.000000 0.000000 0.000000 0.000000 0.000000 0.000000 10.000000 
Rope3_Seg08 0.000000 0.000000 0.000000 0.000000 0.000000 0.000000 10.000000 
Rope3_Seg09 0.000000 0.000000 0.000000 0.000000 0.000000 0.000000 10.000000 
R_rear_hand01 0.000000 0.000000 0.000000 0.000000 0.000000 0.000000 10.000000 
R_rear_hand02 0.000000 0.000000 0.000000 0.000000 0.000000 0.000000 10.000000 
R_rear_hand03 0.000000 0.000000 0.000000 0.000000 0.000000 0.000000 10.000000 
Rope4_Seg01 0.000000 0.000000 0.000000 0.000000 0.000000 0.000000 10.000000 
Rope4_Seg02 0.000000 0.000000 0.000000 0.000000 0.000000 0.000000 10.000000 
Rope4_Seg03 0.000000 0.000000 0.000000 0.000000 0.000000 0.000000 10.000000 
Rope4_Seg04 0.000000 0.000000 0.000000 0.000000 0.000000 0.000000 10.000000 
Rope4_Seg05 0.000000 0.000000 0.000000 0.000000 0.000000 0.000000 10.000000 
Rope4_Seg06 0.000000 0.000000 0.000000 0.000000 0.000000 0.000000 10.000000 
Rope4_Seg07 0.000000 0.000000 0.000000 0.000000 0.000000 0.000000 10.000000 
Rope4_Seg08 0.000000 0.000000 0.000000 0.000000 0.000000 0.000000 10.000000 
Rope4_Seg09 0.000000 0.000000 0.000000 0.000000 0.000000 0.000000 10.000000 
L_rear_hand01 0.000000 0.000000 0.000000 0.000000 0.000000 0.000000 10.000000 
L_rear_hand02 0.000000 0.000000 0.000000 0.000000 0.000000 0.000000 10.000000 
L_rear_hand03 0.000000 0.000000 0.000000 0.000000 0.000000 0.000000 10.000000 
#Beginning of Data. Separated by tabs
#Fr	Tx	Ty	Tz	Rx	Ry	Rz	SF
[MASTER]
7 -601.786133 -32.935158 257.853455 0.001660 0.001660 0.001660 655.530090
8 -721.624390 -31.880766 418.303955 0.001660 0.001660 0.001660 834.707336
[root]
7 -11.516891 -70.832161 1814.316406 -124.606682 -20.666866 -55.554890 1815.734985
8 0.123138 -75.717323 1675.924683 -124.670311 -20.333008 -54.763035 1677.634155
[chest]
7 -84.512650 -34.090519 0.000000 -4.157507 -0.872557 172.010895 91.129311
8 -84.512650 -34.090519 0.000000 -6.701295 -2.619099 172.201752 91.129311
[L_mid_tent01]
7 27.299114 22.179167 -249.918701 -0.293353 25.759521 68.389473 252.381683
8 27.299116 22.179169 -249.918701 0.353361 14.985002 69.943573 252.381683
[R_mid_tent01]
7 23.228794 24.509907 226.238495 170.248795 -23.754362 67.391167 228.744751
8 23.228794 24.509907 226.238495 168.622986 -18.794060 72.577217 228.744751
[spine01]
7 -0.361383 -0.195265 0.000000 0.001953 0.001302 22.621500 0.410763
8 -0.361383 -0.195265 0.000000 0.001954 0.001301 22.683720 0.410763
[Bip01_Neck]
7 165.484543 71.581718 0.000119 176.643677 -1.657967 43.431911 180.302734
8 165.484543 71.581718 0.000119 176.643677 -1.657967 43.431911 180.302734
[L_humerus]
7 -13.983130 -135.272980 -120.471481 153.297791 70.954704 -115.176132 181.680161
8 -13.983130 -135.272980 -120.471481 142.717697 76.057610 -126.169334 181.680161
[R_humerus]
7 -13.983309 -135.273102 125.287651 -170.903183 -65.772606 -94.114449 184.909012
8 -13.983309 -135.273102 125.287651 -169.986862 -68.544861 -95.093224 184.909012
[weapon_bone]
7 235.964890 -300.705902 0.000000 0.000000 -89.951546 -128.212341 382.234833
8 235.964890 -300.705902 0.000000 0.000000 -89.951546 -128.212341 382.234833
[Bip01_Head]
7 213.441162 185.723724 11.670685 5.845829 3.431769 -43.889900 283.172455
8 213.436966 185.735458 11.518784 7.808062 4.608490 -43.868061 283.170746
[eye_left_bone]
7 -24.626970 125.451866 -64.772606 0.000000 -90.000000 -99.840431 143.318359
8 -24.626970 125.451866 -64.772606 0.000000 -90.000000 -99.840431 143.318359
[eye_right_bone]
7 -24.626970 125.451866 64.327362 0.000000 -89.965736 80.156380 143.117676
8 -24.626970 125.451866 64.327362 0.000000 -89.965736 80.156380 143.117676
[L_forearm]
7 322.776093 0.000000 -0.000119 0.000119 -0.002344 -95.830795 322.776093
8 322.776093 0.000000 -0.000119 0.000120 -0.002344 -95.854111 322.776093
[L_front_hand]
7 241.149185 -0.042021 -3.300071 -178.835892 -1.835643 -27.424311 241.171753
8 241.149185 -0.042021 -3.300071 -179.299042 -1.836581 -27.421061 241.171753
[L_weapon_bone]
7 156.183838 0.000000 0.000000 0.000014 0.000007 0.000001 156.183838
8 156.183838 0.000000 0.000000 0.000014 0.000007 0.000001 156.183838
[L_front_hand01_01]
7 86.095154 20.947098 -0.655860 -0.366594 -0.477154 75.385574 88.609184
8 86.095154 20.947098 -0.655860 -0.366594 -0.477154 75.385574 88.609184
[L_front_hand02_01]
7 86.935165 -11.437475 24.513514 154.399796 -59.883835 -61.369587 91.046425
8 86.935165 -11.437475 24.513514 154.399796 -59.883835 -61.369587 91.046425
[L_front_hand03_01]
7 86.637497 -14.123976 -20.424902 -153.913849 58.118122 -62.702866 90.126129
8 86.637497 -14.123976 -20.424902 -153.913849 58.118122 -62.702866 90.126129
[L_front_hand01_02]
7 71.020905 -0.000179 0.000030 0.000324 -0.002325 -105.867859 71.020905
8 71.020905 -0.000179 0.000030 0.000323 -0.002325 -105.828911 71.020905
[L_front_hand02_02]
7 71.020927 -0.000119 0.000060 0.000324 -0.002325 -105.867859 71.020927
8 71.020927 -0.000119 0.000060 0.000323 -0.002325 -105.828911 71.020927
[L_front_hand03_02]
7 71.020905 -0.000060 0.000060 0.000324 -0.002325 -105.867859 71.020905
8 71.020905 -0.000060 0.000060 0.000323 -0.002325 -105.828911 71.020905
[R_forearm]
7 322.776428 -0.000060 0.000030 0.209502 0.012611 -94.352539 322.776428
8 322.776428 -0.000060 0.000030 0.209498 0.012685 -94.392998 322.776428
[R_front_hand]
7 238.847015 -0.006795 2.210259 -2.635298 -10.645461 -26.312504 238.857239
8 238.847015 -0.006795 2.210259 -2.635298 -10.645461 -26.312506 238.857239
[R_weapon_bone]
7 155.664093 0.002503 -0.000030 0.003487 0.001180 -90.988930 155.664078
8 155.664093 0.002503 -0.000030 0.003487 0.001180 -90.988930 155.664078
[R_front_hand01_01]
7 87.624611 14.231146 22.918642 -154.633499 -59.950619 61.746044 91.683487
8 87.624611 14.231146 22.918642 -154.633499 -59.950619 61.746044 91.683487
[R_front_hand02_01]
7 89.356956 14.367283 -19.491137 154.602661 58.302849 63.744389 92.579636
8 89.356956 14.367283 -19.491137 154.602661 58.302849 63.744389 92.579636
[R_front_hand03_01]
7 87.286232 -22.307278 -0.143439 0.162155 -0.423168 -75.767921 90.091743
8 87.286232 -22.307278 -0.143439 0.162155 -0.423168 -75.767921 90.091743
[R_front_hand01_02]
7 71.020905 0.000060 0.000119 0.002323 -0.000334 106.381714 71.020905
8 71.020905 0.000060 0.000119 0.002323 -0.000334 106.381714 71.020905
[R_front_hand02_02]
7 71.020844 -0.000030 -0.000119 0.002323 -0.000334 106.381714 71.020836
8 71.020844 -0.000030 -0.000119 0.002323 -0.000334 106.381714 71.020836
[R_front_hand03_02]
7 71.020905 0.000000 0.000030 0.002323 -0.000334 106.381714 71.020905
8 71.020905 0.000000 0.000030 0.002323 -0.000334 106.381714 71.020905
[null_rope01_connect]
7 328.732483 0.000000 -0.000238 -174.026962 -42.232605 -124.872032 328.732483
8 328.732483 0.000000 -0.000238 171.918015 -47.560703 -116.011513 328.732483
[Rope1_Seg01]
7 0.000026 -0.000045 0.000126 -98.161865 -28.369003 -122.897781 0.000137
8 0.000031 -0.000046 0.000122 -99.765182 -36.100338 -127.829987 0.000134
[Rope1_Seg02]
7 139.999863 -0.000179 0.000000 87.983528 10.653615 14.712053 139.999863
8 139.999863 -0.000179 0.000000 59.115242 8.238842 13.362326 139.999863
[Rope1_Seg03]
7 139.999924 0.000060 -0.000060 0.701781 11.218793 -11.138741 139.999924
8 139.999924 0.000060 -0.000060 27.542841 20.838474 1.432896 139.999924
[Rope1_Seg04]
7 139.999924 -0.000060 -0.000119 7.036637 4.934563 1.847715 139.999924
8 139.999924 -0.000060 -0.000119 3.099267 11.171270 -7.117200 139.999924
[Rope1_Seg05]
7 139.999832 0.000119 -0.000060 17.721607 3.662303 11.667619 139.999832
8 139.999832 0.000119 -0.000060 -6.650310 -3.574310 -8.432890 139.999832
[Rope1_Seg06]
7 139.999954 0.000119 -0.000060 13.027277 5.383064 5.526710 139.999954
8 139.999954 0.000119 -0.000060 -4.731207 0.255878 -11.268267 139.999954
[Rope1_Seg07]
7 139.999985 0.000060 0.000000 8.982136 4.910906 2.974828 139.999985
8 139.999985 0.000060 0.000000 -2.000517 1.225837 -7.380578 139.999985
[Rope1_Seg09]
7 121.602913 0.000119 -0.000089 -89.793175 -1.359789 0.847147 121.602913
8 121.602913 0.000119 -0.000089 -89.793175 -1.359789 0.847147 121.602913
[L_mid_hand01]
7 103.859421 1.038730 8.195221 129.242477 -66.931091 -37.458961 104.187431
8 103.859421 1.038730 8.195221 126.075401 -65.098549 -33.991913 104.187431
[L_mid_hand02]
7 105.572853 -4.139662 -10.864139 -168.136536 43.236561 -72.353096 106.211075
8 105.572853 -4.139662 -10.864139 -166.035263 42.723965 -69.273842 106.211075
[L_mid_hand03]
7 104.641464 17.579376 -3.913581 -6.285014 17.719219 74.000862 106.179977
8 104.641464 17.579376 -3.913581 -7.014418 17.452778 71.596474 106.179977
[null_rope02_connect]
7 328.732849 0.000179 -0.000119 -62.288559 39.989540 71.083916 328.732849
8 328.732849 0.000179 -0.000119 -57.708179 40.456638 79.724312 328.732849
[Rope2_Seg01]
7 0.000058 0.000121 -0.000026 -2.920521 40.810078 -68.315216 0.000137
8 0.000061 0.000122 -0.000031 -2.202438 33.220097 -65.674911 0.000140
[Rope2_Seg02]
7 139.999741 -0.000060 -0.000119 2.199288 2.358216 3.842466 139.999756
8 139.999741 -0.000060 -0.000119 2.365133 9.151076 0.578048 139.999756
[Rope2_Seg03]
7 140.000107 0.000030 0.000000 5.253474 3.590458 9.826926 140.000107
8 140.000107 0.000030 0.000000 2.359021 6.332925 2.931640 140.000107
[Rope2_Seg04]
7 139.999802 0.000000 -0.000060 2.147639 3.407309 3.411364 139.999802
8 139.999802 0.000000 -0.000060 1.012271 5.834362 0.687146 139.999802
[Rope2_Seg05]
7 139.999985 -0.000060 0.000119 -8.985948 -5.615112 -34.459484 139.999985
8 139.999985 -0.000060 0.000119 -2.754510 15.345167 -15.141084 139.999985
[Rope2_Seg06]
7 139.999893 -0.000030 -0.000119 -2.291286 0.467636 -19.427305 139.999893
8 139.999893 -0.000030 -0.000119 -0.116918 17.348734 -17.726841 139.999893
[Rope2_Seg07]
7 139.999893 0.000060 -0.000060 -0.170642 0.672823 -9.049621 139.999893
8 139.999893 0.000060 -0.000060 2.658466 9.681784 -9.725011 139.999893
[Rope2_Seg09]
7 121.338966 0.000089 -0.000060 33.793236 -1.359788 -0.847141 121.338966
8 121.338966 0.000089 -0.000060 33.793236 -1.359788 -0.847141 121.338966
[R_mid_hand01]
7 104.680779 11.144459 -10.335981 -16.562792 45.133286 69.965408 105.778534
8 104.680779 11.144459 -10.335981 -17.548510 44.833435 68.572052 105.778534
[R_mid_hand02]
7 104.070427 2.443552 8.231699 49.649654 -67.470848 38.658398 104.424065
8 104.070427 2.443552 8.231699 51.203640 -66.683899 36.975819 104.424065
[R_mid_hand03]
7 106.028137 -11.221827 -5.996406 -176.996689 15.531745 -76.202309 106.788818
8 106.028137 -11.221827 -5.996406 -176.709671 15.475002 -75.137619 106.788818
[spine02]
7 129.756927 0.001550 0.000119 -1.023389 -3.927097 6.756106 129.756927
8 129.756927 0.001550 0.000119 -1.021981 -3.932479 6.706543 129.756927
[spine03]
7 78.614044 0.081630 -4.898995 1.041398 4.146240 4.232207 78.766579
8 78.614044 0.081604 -4.898994 1.042116 4.146060 4.252038 78.766579
[pelvis]
7 169.435242 0.051022 0.000000 0.019485 -0.190237 -10.701564 169.435257
8 169.435242 0.051022 0.000000 0.019386 -0.190247 -10.641955 169.435257
[null_rope03_connect]
7 -1.257226 -2.466202 137.391083 150.903900 -52.181084 -52.991413 137.418976
8 -1.257226 -2.466202 137.391083 149.953979 -51.597073 -52.197742 137.418976
[null_rope04_connect]
7 -1.259640 -2.480268 -137.844437 150.903900 -52.181084 -52.991413 137.872513
8 -1.259640 -2.480268 -137.844437 149.953979 -51.597073 -52.197742 137.872513
[Rope3_Seg01]
7 0.000000 0.000000 0.000000 11.717451 -4.660718 -45.469982 0.000000
8 0.000000 0.000000 0.000000 9.188328 -5.765919 -39.674076 0.000000
[Rope3_Seg02]
7 139.999924 -0.000119 0.000060 0.533245 10.275431 18.396688 139.999924
8 139.999924 -0.000119 0.000060 0.631432 10.422497 18.056509 139.999924
[Rope3_Seg03]
7 139.999924 -0.000119 0.000119 -30.526005 14.857266 31.906225 139.999924
8 139.999924 -0.000119 0.000119 -123.793694 17.227297 33.493347 139.999924
[Rope3_Seg04]
7 139.999924 0.000119 0.000000 -125.065521 -3.576181 23.039541 139.999924
8 139.999924 0.000119 0.000000 -40.985600 -25.134542 -4.659657 139.999924
[Rope3_Seg05]
7 139.999924 -0.000238 0.000060 -11.506604 -21.306316 -13.093465 139.999924
8 139.999924 -0.000238 0.000060 -0.186292 -15.081208 -18.578821 139.999924
[Rope3_Seg06]
7 139.999893 -0.000119 -0.000060 -0.444904 -20.516996 -19.065590 139.999893
8 139.999893 -0.000119 -0.000060 1.679681 -13.516429 -17.844343 139.999893
[Rope3_Seg07]
7 139.999771 0.000060 -0.000119 0.718447 -8.333403 -9.204593 139.999771
8 139.999771 0.000060 -0.000119 0.812099 -6.037622 -8.011499 139.999771
[Rope3_Seg08]
7 139.999985 -0.000060 0.000000 0.624496 -4.117453 -4.510638 139.999985
8 139.999985 -0.000060 0.000000 0.629357 -3.148464 -4.103242 139.999985
[Rope3_Seg09]
7 90.185997 -0.000179 -0.000060 89.793228 -1.359877 -0.847183 90.185997
8 90.185997 -0.000179 -0.000060 89.793228 -1.359877 -0.847183 90.185997
[R_rear_hand01]
7 103.366196 -6.073594 -10.757982 173.051453 -15.235062 -75.064468 104.101845
8 103.366196 -6.073594 -10.757982 173.606583 -15.279550 -74.048500 104.101845
[R_rear_hand02]
7 100.509819 12.039542 -7.992327 -13.210595 36.766563 71.607780 101.543350
8 100.509819 12.039542 -7.992327 -14.131634 36.459908 70.059998 101.543350
[R_rear_hand03]
7 101.539970 5.215704 5.435467 71.918968 -71.383453 21.055584 101.819031
8 101.539970 5.215704 5.435467 73.022980 -70.158020 19.886856 101.819031
[Rope4_Seg01]
7 0.000010 0.000032 -0.000126 -101.658554 -9.452929 -76.026543 0.000131
8 0.000010 0.000031 -0.000122 -101.422310 -8.940302 -71.510551 0.000126
[Rope4_Seg02]
7 139.999985 0.000060 0.000119 -3.915192 14.313308 -3.467918 139.999985
8 139.999985 0.000060 0.000119 -7.156517 17.730484 -7.091568 139.999985
[Rope4_Seg03]
7 139.999924 0.000000 -0.000238 -2.877386 25.245945 -6.277528 139.999924
8 139.999924 0.000000 -0.000238 -5.485513 30.991816 -11.809361 139.999924
[Rope4_Seg04]
7 139.999985 0.000000 0.000119 2.912945 25.609444 -11.264830 139.999985
8 139.999985 0.000000 0.000119 3.131351 23.696259 -12.640824 139.999985
[Rope4_Seg05]
7 139.999802 -0.000060 -0.000119 3.982450 20.402813 5.481566 139.999802
8 139.999802 -0.000060 -0.000119 3.007089 15.398175 2.694945 139.999802
[Rope4_Seg06]
7 139.999924 0.000000 0.000060 -9.048030 25.854019 18.071341 139.999924
8 139.999924 0.000000 0.000060 -2.873969 24.121584 15.936799 139.999924
[Rope4_Seg07]
7 139.999802 0.000000 0.000000 -84.959251 12.509681 10.085776 139.999802
8 139.999802 0.000000 0.000000 -34.033428 16.904829 11.547780 139.999802
[Rope4_Seg08]
7 139.999924 0.000000 0.000119 -58.554310 -4.047093 6.288419 139.999924
8 139.999924 0.000000 0.000119 -108.243530 3.832639 8.430607 139.999924
[Rope4_Seg09]
7 90.185791 0.000060 0.000060 -135.617828 2.228885 0.850567 90.185791
8 90.185791 0.000060 0.000060 -135.617828 2.228885 0.850567 90.185791
[L_rear_hand01]
7 101.696655 -8.392275 -7.654577 -14.225129 -36.428967 110.098549 102.329041
8 101.696655 -8.392275 -7.654577 -17.565516 -35.113850 115.806488 102.329041
[L_rear_hand02]
7 102.726799 -1.568258 5.773216 73.119141 70.038223 160.218079 102.900848
8 102.726799 -1.568258 5.773216 76.237793 65.389854 163.579773 102.900848
[L_rear_hand03]
7 104.552910 9.721220 -10.420293 -176.859985 -24.478331 -108.136047 105.519653
8 104.552910 9.721220 -10.420293 -174.689285 -24.125307 -113.408821 105.519653
